<?xml version="1.0" encoding="UTF-8" standalone="no"?>
<svg
   width="800px"
   height="800px"
   viewBox="0 0 24 24"
   fill="none"
   version="1.1"
   id="svg5"
   sodipodi:docname="icon.svg"
   inkscape:version="1.4.2 (ebf0e94, 2025-05-08)"
   xml:space="preserve"
   inkscape:export-filename="icon.png"
   inkscape:export-xdpi="96"
   inkscape:export-ydpi="96"
   xmlns:inkscape="http://www.inkscape.org/namespaces/inkscape"
   xmlns:sodipodi="http://sodipodi.sourceforge.net/DTD/sodipodi-0.dtd"
   xmlns="http://www.w3.org/2000/svg"
   xmlns:svg="http://www.w3.org/2000/svg"><defs
     id="defs5" /><sodipodi:namedview
     id="namedview5"
     pagecolor="#505050"
     bordercolor="#ffffff"
     borderopacity="1"
     inkscape:showpageshadow="0"
     inkscape:pageopacity="0"
     inkscape:pagecheckerboard="1"
     inkscape:deskcolor="#505050"
     inkscape:zoom="0.70710678"
     inkscape:cx="328.09754"
     inkscape:cy="384.66609"
     inkscape:window-width="1920"
     inkscape:window-height="1057"
     inkscape:window-x="-8"
     inkscape:window-y="-8"
     inkscape:window-maximized="1"
     inkscape:current-layer="g2"
     showguides="true" /><g
     id="g2"
     inkscape:label="moon"><path
       d="M 22,12 C 22,6.47715 17.52285,2 12,2 11.5373,2 11.4608,2.69347 11.8568,2.93276 13.7406,4.07105 15,6.13845 15,8.5 15,12.0899 12.0899,15 8.5,15 6.1385,15 4.0711,13.7406 2.9328,11.8568 2.6935,11.4608 2,11.5373 2,12 c 0,1.1377 0.19,2.231 0.54,3.25 H 2 c -0.4142,0 -0.75,0.3358 -0.75,0.75 0,0.4142 0.3358,0.75 0.75,0.75 h 20 c 0.41421,0 0.75,-0.3358 0.75,-0.75 0,-0.4142 -0.33579,-0.75 -0.75,-0.75 H 21.46002 C 21.81001,14.231 22,13.1377 22,12 Z"
       fill="#23272e"
       id="path1"
       inkscape:label="moon"
       style="display:inline" /><path
       d="m 19,18.25 c 0.41421,0 0.75,0.3358 0.75,0.75 0,0.4142 -0.33579,0.75 -0.75,0.75 H 5 C 4.5858,19.75 4.25,19.4142 4.25,19 4.25,18.5858 4.5858,18.25 5,18.25 Z"
       fill="#23272e"
       id="path2"
       style="display:inline"
       inkscape:label="line0" /><path
       d="m 16,21.25 c 0.41421,0 0.75,0.3358 0.75,0.75 0,0.4142 -0.33579,0.75 -0.75,0.75 H 8 C 7.5858,22.75 7.25,22.4142 7.25,22 7.25,21.5858 7.5858,21.25 8,21.25 Z"
       fill="#23272e"
       id="path3"
       inkscape:label="line1" /><path
       d="m 4.0999,2.30719 c 0.1609,-0.40959 0.7385,-0.40959 0.8994,0 L 5.4297,3.40247 C 5.4788,3.52752 5.5774,3.62651 5.702,3.67583 L 6.7933,4.1078 c 0.4081,0.16154 0.4081,0.7412 0,0.90274 L 5.702,5.44252 C 5.5774,5.49184 5.4788,5.59082 5.4297,5.71587 L 4.9993,6.81115 C 4.8384,7.22074 4.2608,7.22074 4.0999,6.81116 L 3.6695,5.71587 C 3.6204,5.59082 3.5218,5.49184 3.3972,5.44252 L 2.3059,5.01054 C 1.8978,4.849 1.8978,4.26934 2.3059,4.1078 L 3.3972,3.67583 C 3.5218,3.62651 3.6204,3.52752 3.6695,3.40247 Z"
       fill="#23272e"
       id="path4"
       style="display:none"
       inkscape:label="star0" /><ellipse
       style="display:inline;fill:#23272e;stroke-width:0.0439724"
       id="path6-9"
       cx="4.5"
       cy="4.3356171"
       rx="3"
       ry="2.8356166"
       inkscape:label="path6" /><path
       id="path7-8"
       style="fill:#444b54;fill-opacity:1;stroke-width:0.00811939"
       inkscape:label="electron0"
       d="M 4.4551549,4.5911748 C 4.3679767,4.57021 4.2877355,4.493247 4.2610089,4.4049728 4.242181,4.3427743 4.2469244,4.2383677 4.2710462,4.1843512 c 0.023766,-0.053246 0.07706,-0.107965 0.1309211,-0.1344018 0.041217,-0.020236 0.054331,-0.022487 0.1310668,-0.022487 0.076655,0 0.08985,0.00227 0.1309212,0.022422 0.1198316,0.058847 0.1820948,0.1965241 0.1493443,0.330199 -0.023248,0.094884 -0.083617,0.1679488 -0.1636814,0.1981139 -0.046544,0.017533 -0.1474826,0.024284 -0.194439,0.012951 z M 5.32379,6.5990974 C 4.844925,6.4755261 4.1874619,5.753883 3.6925486,4.8086315 L 3.5022184,4.4451137 3.4243489,4.5956883 C 3.2239037,4.9833085 3.0786634,5.5264409 3.0786634,5.8884014 c 0,0.2344455 0.017533,0.2929658 0.1178727,0.3932976 C 3.2898171,6.37498 3.343274,6.3937922 3.452819,6.371888 3.6189887,6.338652 3.9054092,6.2073697 3.9054092,6.1644395 c 0,-0.016869 0.051676,-0.034952 0.1148292,-0.040181 0.2277675,-0.018844 0.085543,0.153683 -0.2534418,0.3074453 C 2.8679673,6.8394082 2.6259469,5.8842586 3.2880918,4.5424586 L 3.4175074,4.2802035 3.3075349,3.9295253 3.1975625,3.578847 3.0140916,3.6081816 C 2.913185,3.6243707 2.8089257,3.6544339 2.7824112,3.6751073 2.7558935,3.6957808 2.6777488,3.7261677 2.6087363,3.7426482 2.4585987,3.778507 2.1757204,4.0170694 2.1363854,4.1410033 2.0954659,4.2699332 2.2372515,4.4785668 2.4625731,4.6209903 2.7117021,4.7784615 2.698338,4.9010015 2.4440366,4.7909222 2.209426,4.6893681 2.0188935,4.4542233 1.9886778,4.2289489 1.9653542,4.0550538 1.9772645,4.0302457 2.1749485,3.8408269 2.3385848,3.6840356 2.4666884,3.6129914 2.7438876,3.5253016 l 0.3577529,-0.1131779 -0.01661,-0.45672 C 3.0606627,2.2854087 3.2130959,1.98 3.5718639,1.98 3.7146516,1.98 4.1401736,2.1740197 4.2271025,2.2787615 4.3490063,2.425645 4.2081775,2.4212578 3.9112923,2.2688861 3.6180837,2.1184572 3.586481,2.1114958 3.4635508,2.1704241 3.2796557,2.2585575 3.2005704,2.5134579 3.2352652,2.906197 3.2775511,3.3847917 3.2671092,3.3742461 3.6683055,3.3439045 L 4.0137967,3.3177754 4.331629,2.9694316 C 5.2988847,1.9093265 6.1552517,1.8042189 6.1558216,2.7455398 6.1560191,3.0712593 6.127005,3.1741506 6.0349701,3.1741506 c -0.052323,0 -0.0599,-0.056953 -0.038239,-0.2870632 C 6.051143,2.3090237 5.784737,2.1162813 5.2828559,2.3706038 5.0709942,2.4779698 4.2728496,3.184434 4.2728496,3.2646039 c 0,0.017517 0.2428557,0.055658 0.539681,0.08475 C 5.7964304,3.4457759 6.6348777,3.73293 6.9368851,4.0768979 7.2047578,4.3819876 7.0892729,4.7311845 6.6420316,4.9684436 6.4855479,5.0514613 6.4214618,5.0655458 6.3816237,5.0257206 6.3417824,4.9858793 6.3727197,4.95049 6.5070891,4.881913 6.7477771,4.7591188 6.9368057,4.5623097 6.9368057,4.4344985 6.9368057,4.1552351 6.4367216,3.8371714 5.7063268,3.6518922 5.2654381,3.540058 4.1347988,3.4258116 4.0904634,3.4886253 3.9363433,3.706982 3.7656602,3.962959 3.6852247,4.0963797 l -0.099093,0.1643759 0.1632119,0.3408579 c 0.4666844,0.9746396 1.2942299,1.8795189 1.7188907,1.8795189 0.4799805,0 0.490696,-0.8984765 0.024559,-2.0593942 -0.1061194,-0.264303 -0.14418,-0.4126419 -0.1136959,-0.4431325 0.05807,-0.05807 0.093411,-0.00291 0.2739112,0.4276088 C 6.0908149,5.4504461 6.1000913,6.4328808 5.6737146,6.599855 5.5679027,6.641283 5.486674,6.641105 5.3237778,6.5990682 Z M 3.6973163,3.7933524 C 3.786502,3.6539158 3.8594824,3.5299107 3.8594824,3.5177705 c 0,-0.038692 -0.3878597,-0.022276 -0.4532993,0.019168 -0.052647,0.03335 -0.05017,0.078161 0.015218,0.2748778 0.042933,0.1292698 0.08611,0.2350363 0.095937,0.2350363 0.00988,0 0.090837,-0.1140844 0.1800307,-0.2535081 z" /><path
       d="m 7.9672,8.12967 c 0.161,-0.40958 0.7385,-0.40958 0.8995,0 l 0.1569,0.39935 c 0.0491,0.12505 0.1477,0.22403 0.2723,0.27335 l 0.3979,0.1575 c 0.4081,0.16154 0.4081,0.7412 0,0.90274 L 9.2959,10.0201 c -0.1246,0.0493 -0.2232,0.1483 -0.2723,0.2734 l -0.1569,0.3993 c -0.161,0.4096 -0.7385,0.4096 -0.8995,0 L 7.8103,10.2935 C 7.7612,10.1684 7.6626,10.0694 7.538,10.0201 L 7.1401,9.86261 C 6.732,9.70107 6.732,9.12141 7.1401,8.95987 L 7.538,8.80237 C 7.6626,8.75305 7.7612,8.65407 7.8103,8.52902 Z"
       fill="#23272e"
       id="path5"
       style="display:none;fill:#23272e;fill-opacity:1"
       inkscape:label="star1" /><g
       id="g6"
       style="display:inline"><ellipse
         style="display:inline;fill:#23272e;stroke-width:0.0252842"
         id="path6"
         cx="8.3850002"
         cy="9.2354794"
         rx="1.725"
         ry="1.6304796"
         inkscape:label="path6" /><path
         id="path7"
         style="display:inline;fill:#444b54;fill-opacity:1;stroke-width:0.00501535"
         inkscape:label="electron1"
         d="M 8.338908,9.4129226 C 8.2850615,9.3999702 8.2354927,9.3524295 8.2189842,9.2979057 c -0.011632,-0.038416 -0.0087,-0.1029117 0.0062,-0.1362778 0.014683,-0.03289 0.047603,-0.066687 0.080868,-0.083023 0.025462,-0.012504 0.033565,-0.013895 0.080955,-0.013895 0.047353,0 0.055505,0.0014 0.08087,0.013853 0.074019,0.03635 0.1124806,0.1213931 0.092245,0.203964 -0.014362,0.058607 -0.051653,0.1037423 -0.1011063,0.1223755 -0.028751,0.010833 -0.091102,0.014997 -0.1201048,0.00802 z M 8.8754639,10.653217 C 8.5796694,10.576884 8.1735542,10.131128 7.867846,9.5472463 L 7.7502788,9.3227011 7.7021822,9.4157091 c -0.123815,0.2394324 -0.2135299,0.5749261 -0.2135299,0.7985079 0,0.144818 0.010833,0.180966 0.072808,0.242941 0.057624,0.05762 0.090639,0.06924 0.1583061,0.05571 0.1026433,-0.02053 0.2795653,-0.101623 0.2795653,-0.128142 0,-0.01042 0.031917,-0.02159 0.070928,-0.02482 0.1406917,-0.01164 0.052836,0.09493 -0.1565512,0.189909 C 7.3585015,10.801653 7.209006,10.211657 7.6180133,9.3828272 L 7.6979541,9.2208315 7.6300207,9.004218 7.562087,8.7876041 7.4487568,8.8057261 c -0.062332,0.00997 -0.1267305,0.028569 -0.1431091,0.041337 -0.016378,0.012768 -0.064654,0.031543 -0.1072789,0.041722 -0.092736,0.022146 -0.2674738,0.1695106 -0.291771,0.2460648 -0.025276,0.079637 0.062305,0.2085121 0.201486,0.2964878 0.1538868,0.097271 0.1456318,0.1729632 -0.011447,0.1049672 C 6.9517169,9.473573 6.834025,9.3283256 6.8153608,9.1891743 6.8009534,9.0817588 6.8083077,9.0664348 6.9304202,8.9494304 7.0314984,8.8525807 7.1106278,8.8086965 7.2818544,8.7545307 L 7.5028379,8.6846244 7.4925796,8.4025085 C 7.4775304,7.9886504 7.5716881,7.8 7.793299,7.8 7.881501,7.8 8.1443443,7.9198455 8.1980402,7.9845449 8.2733355,8.0752704 8.186354,8.0725619 8.0029635,7.9784702 7.8218486,7.8855462 7.8023281,7.8812534 7.7263941,7.917647 7.6128016,7.9720897 7.5639506,8.1295391 7.5853824,8.3721341 7.6114995,8.6677623 7.6050547,8.6612482 7.8528711,8.6425058 L 8.0662808,8.6263658 8.2626064,8.4111939 C 8.8600796,7.7563665 9.3890578,7.6914421 9.3894102,8.2728956 c 1.214e-4,0.2011976 -0.017797,0.2647532 -0.074647,0.2647532 -0.032315,0 -0.037,-0.035175 -0.023621,-0.1773194 C 9.3247533,8.0032604 9.1601939,7.8842032 8.8501816,8.0412984 8.7193147,8.1076134 8.2263011,8.544001 8.2263011,8.5935216 c 0,0.010825 0.1500123,0.034384 0.3333606,0.052352 0.6077551,0.059563 1.1256642,0.2369349 1.3122148,0.4494044 0.1654645,0.1884534 0.094127,0.4041529 -0.1821319,0.5507081 -0.096657,0.051276 -0.1362453,0.059983 -0.1608533,0.035374 -0.024608,-0.024608 -0.00554,-0.046471 0.077497,-0.088831 0.1486738,-0.075846 0.2654369,-0.1974182 0.2654369,-0.2763669 0,-0.1725017 -0.3089024,-0.3689694 -0.7600669,-0.4834168 C 8.839421,8.7636615 8.1410251,8.6930959 8.1136387,8.7318958 8.0184377,8.8667745 7.9130082,9.0248921 7.8633228,9.1073064 L 7.8021104,9.2088411 7.902926,9.4193887 c 0.2882705,0.6020353 0.7994455,1.1609793 1.0617586,1.1609793 0.2964839,0 0.3031036,-0.554989 0.015173,-1.2720883 -0.065552,-0.1632595 -0.089061,-0.254889 -0.070227,-0.2737226 0.035874,-0.035874 0.057698,-0.0018 0.1691955,0.2641343 0.270433,0.6450217 0.2761629,1.2518716 0.012794,1.3550116 -0.065354,0.02559 -0.1155345,0.02548 -0.2161562,-4.86e-4 z M 7.8707906,8.9201076 C 7.9258844,8.8339822 7.9709611,8.75738 7.9709611,8.7498812 c 0,-0.023897 -0.2395808,-0.013763 -0.2800031,0.011844 -0.032515,0.020598 -0.030986,0.048282 0.00937,0.169792 0.026522,0.07985 0.053187,0.1451822 0.059255,0.1451822 0.00607,0 0.05611,-0.070466 0.1112044,-0.1565922 z" /></g></g></svg>
